<svg class="h-14 w-14 md:h-20 md:w-20" width="113" height="113" viewBox="0 0 113 113" fill="none" xmlns="http://www.w3.org/2000/svg"><circle cx="56.5" cy="56.5" r="56.5" fill="white"></circle><path d="M44 37.7734C44 33.6149 44 31.5357 44.8367 30.4678C45.5644 29.539 46.6678 28.9987 47.8342 29C49.1754 29.0015 50.7691 30.3004 53.9564 32.8981L76.3194 51.1248C78.3641 52.7913 79.3865 53.6245 79.7566 54.6312C80.0811 55.5138 80.0811 56.4862 79.7566 57.3688C79.3865 58.3755 78.3641 59.2087 76.3194 60.8752L53.9564 79.1019C50.7691 81.6996 49.1754 82.9985 47.8342 83C46.6678 83.0013 45.5644 82.461 44.8367 81.5322C44 80.4643 44 78.3851 44 74.2266V37.7734Z" fill="#FE6703"></path></svg>