<svg xmlns="http://www.w3.org/2000/svg" fill="none" viewBox="0 0 149 40" height="40" width="149">
<g clip-path="url(#clip0_1645_4723)">
<path fill="black" d="M137.323 21.2546L139.647 15.133L141.971 21.2546H137.323ZM142.06 11.6628H137.216L130.457 28.266H134.644L136.187 24.2087H143.089L144.632 28.266H148.819L142.06 11.6628ZM107.943 25.3832C105.211 25.3832 103.011 22.9096 103.011 19.8666C103.011 16.8235 105.229 14.35 107.943 14.35C110.675 14.35 112.875 16.8235 112.875 19.8666C112.875 22.9096 110.675 25.3832 107.943 25.3832ZM107.943 11.0934C103.118 11.0934 99.1969 15.0262 99.1969 19.8666C99.1969 24.7069 103.118 28.6397 107.943 28.6397C112.769 28.6397 116.69 24.7069 116.69 19.8666C116.69 15.0084 112.769 11.0934 107.943 11.0934ZM73.4189 25.3832C70.6868 25.3832 68.4868 22.9096 68.4868 19.8666C68.4868 16.8235 70.7045 14.35 73.4189 14.35C76.1511 14.35 78.351 16.8235 78.351 19.8666C78.3687 22.9096 76.1511 25.3832 73.4189 25.3832ZM73.4189 11.0934C68.5933 11.0934 64.6725 15.0262 64.6725 19.8666C64.6725 24.7069 68.5933 28.6397 73.4189 28.6397C78.2445 28.6397 82.1653 24.7069 82.1653 19.8666C82.1653 15.0084 78.2623 11.0934 73.4189 11.0934ZM95.0455 11.6628L90.7521 18.3895L86.4587 11.6628H82.2718L88.907 22.0732V28.266H92.5972V22.0732L99.2324 11.6628H95.0455ZM131.344 11.6628H117.186V14.8482H122.438V28.266H126.128V14.8482H131.344V11.6628ZM49.7521 14.8482H55.0035V28.266H58.6759V14.8482H63.8919V11.6628H49.7344V14.8482H49.7521Z"></path>
<path fill="black" d="M16.2944 20.3292C16.2944 20.1691 16.2944 20.0089 16.2944 19.8665C12.0011 19.2259 8.91409 17.4641 8.91409 15.4177C8.91409 15.3287 8.91409 15.2397 8.93184 15.1329C7.83188 16.4498 7.21094 17.9802 7.21094 19.6174C7.21094 24.2798 12.3204 28.1236 18.8137 28.5151C17.3589 27.394 16.2944 24.1552 16.2944 20.3292Z"></path>
<path fill="black" d="M19.9493 13.9763C18.9735 13.9763 18.1574 15.4889 17.8203 17.6244C18.5122 17.6778 19.2219 17.7134 19.9493 17.7134C20.6944 17.7134 21.404 17.6778 22.0782 17.6244C21.7411 15.5067 20.9073 13.9763 19.9493 13.9763Z"></path>
<path fill="black" d="M16.5082 17.482C17.005 14.1365 18.3533 11.7163 19.95 11.7163C21.5467 11.7163 22.8951 14.1187 23.3918 17.482C26.4256 17.0015 28.5368 15.9338 28.5368 14.6703C28.5368 12.9797 24.6869 11.6095 19.95 11.6095C15.2131 11.6095 11.3633 12.9797 11.3633 14.6703C11.3633 15.916 13.4745 17.0015 16.5082 17.482Z"></path>
<path fill="black" d="M0.078125 0.0780029V39.9399H39.8185V0.0780029H0.078125ZM19.9483 29.6363C11.7164 29.6363 5.04567 25.312 5.04567 19.9734C5.04567 16.1829 8.4165 12.8908 13.3131 11.307C15.1582 10.7197 17.4468 10.3638 19.9483 10.3638C22.4321 10.3638 24.7384 10.7197 26.5835 11.307C31.4801 12.8908 34.8509 16.1651 34.8509 19.9734C34.8509 25.312 28.1802 29.6363 19.9483 29.6363Z"></path>
<path fill="black" d="M30.966 15.4C30.966 17.4642 27.879 19.2082 23.5857 19.8488C23.5857 20.009 23.5857 20.1514 23.5857 20.3115C23.5857 24.1375 22.5212 27.3763 21.0664 28.4974C27.5774 28.1059 32.6692 24.2621 32.6692 19.5997C32.6692 17.9625 32.0482 16.4321 30.9483 15.1152C30.966 15.222 30.966 15.311 30.966 15.4Z"></path>
<path fill="black" d="M19.9488 20.1157C19.1682 20.1157 18.4053 20.0801 17.6602 20.0089C17.7134 23.0519 18.7246 25.4721 19.9488 25.4721C21.1729 25.4721 22.1842 23.0519 22.2374 20.0089C21.4923 20.0801 20.7294 20.1157 19.9488 20.1157Z"></path>
<path fill="#EB0A1E" d="M39.8185 0.0780029H0.078125V39.9399H39.8185V0.0780029Z"></path>
<path fill="white" d="M26.5652 11.3069C24.7201 10.7197 22.4315 10.3638 19.93 10.3638C17.4462 10.3638 15.1398 10.7197 13.2948 11.3069C8.39818 12.8907 5.02734 16.1651 5.02734 19.9733C5.02734 25.312 11.698 29.6363 19.93 29.6363C28.1619 29.6363 34.8326 25.312 34.8326 19.9733C34.8503 16.1829 31.4795 12.8907 26.5652 11.3069ZM19.9477 25.4899C18.7236 25.4899 17.7123 23.0698 17.6591 20.0267C18.4042 20.0979 19.1671 20.1335 19.9477 20.1335C20.7283 20.1335 21.4912 20.0979 22.2363 20.0267C22.1654 23.0698 21.1719 25.4899 19.9477 25.4899ZM17.801 17.6421C18.1381 15.5067 18.9719 13.994 19.93 13.994C20.9057 13.994 21.7218 15.5067 22.0589 17.6421C21.3848 17.6955 20.6574 17.7311 19.93 17.7311C19.2026 17.7311 18.4929 17.6955 17.801 17.6421ZM23.3895 17.482C22.8928 14.1364 21.5444 11.7162 19.9477 11.7162C18.351 11.7162 17.0027 14.1186 16.5059 17.482C13.4722 17.0015 11.361 15.9338 11.361 14.6703C11.361 12.9797 15.2108 11.6095 19.9477 11.6095C24.6846 11.6095 28.5345 12.9797 28.5345 14.6703C28.5167 15.916 26.4055 17.0015 23.3895 17.482ZM7.20951 19.6174C7.20951 17.9802 7.83046 16.4498 8.93041 15.133C8.91267 15.2219 8.91267 15.3109 8.91267 15.4177C8.91267 17.482 11.9996 19.2259 16.293 19.8666C16.293 20.0267 16.293 20.1869 16.293 20.3292C16.293 24.1553 17.3575 27.3941 18.8123 28.5152C12.319 28.1237 7.20951 24.2798 7.20951 19.6174ZM21.0654 28.5152C22.5202 27.3941 23.5847 24.1553 23.5847 20.3292C23.5847 20.1691 23.5847 20.0089 23.5847 19.8666C27.878 19.2259 30.965 17.4642 30.965 15.4177C30.965 15.3287 30.965 15.2397 30.9473 15.133C32.0472 16.4498 32.6682 17.9802 32.6682 19.6174C32.6682 24.2798 27.5587 28.1237 21.0654 28.5152Z"></path>
</g>
<defs>
<clipPath id="clip0_1645_4723">
<rect fill="white" height="40" width="149"></rect>
</clipPath>
</defs>
</svg>
