<svg xmlns="http://www.w3.org/2000/svg" fill="none" viewBox="0 0 40 40" height="40" width="40">
<g clip-path="url(#clip0_1154_5443)">
<path fill="#030711" d="M37.1429 0H2.85714C1.28571 0 0 1.28571 0 2.85714V37.1429C0 38.7143 1.28571 40 2.85714 40H37.1429C38.7143 40 40 38.7143 40 37.1429V2.85714C40 1.28571 38.7143 0 37.1429 0ZM2.85714 2.85714H37.1429V8.57143H2.85714V2.85714ZM37.1429 37.1429H2.85714V11.4286H37.1429V37.1429Z"></path>
<path fill="#030711" d="M11.8429 31.0143L13.8571 29L9.15714 24.3L13.8571 19.6L11.8429 17.5857L6.12857 23.3C5.57143 23.8571 5.57143 24.7571 6.12857 25.3143L11.8429 31.0285V31.0143Z"></path>
<path fill="#030711" d="M28.1571 31.0143L33.8714 25.3C34.4286 24.7428 34.4286 23.8428 33.8714 23.2857L28.1571 17.5714L26.1429 19.5857L30.8429 24.2857L26.1429 28.9857L28.1571 31V31.0143Z"></path>
<path fill="#030711" d="M21.5899 15.746L15.7014 31.8458L18.3847 32.8272L24.2732 16.7275L21.5899 15.746Z"></path>
</g>
<defs>
<clipPath id="clip0_1154_5443">
<rect fill="white" height="40" width="40"></rect>
</clipPath>
</defs>
</svg>
