<svg xmlns="http://www.w3.org/2000/svg" fill="none" viewBox="0 0 20 20" height="20" width="20">
<path stroke-linejoin="round" stroke-linecap="round" stroke-width="1.5" stroke="#6A7282" d="M16.6663 13.3333H5.83301C4.4523 13.3333 3.33301 14.4526 3.33301 15.8333"></path>
<path stroke-linejoin="round" stroke-linecap="round" stroke-width="1.5" stroke="#6A7282" d="M3.33301 5.66666C3.33301 4.26653 3.33301 3.56646 3.60549 3.03168C3.84517 2.56128 4.22763 2.17882 4.69803 1.93914C5.23281 1.66666 5.93288 1.66666 7.33301 1.66666H13.9997C14.9331 1.66666 15.3998 1.66666 15.7563 1.84831C16.0699 2.0081 16.3249 2.26307 16.4847 2.57667C16.6663 2.93319 16.6663 3.3999 16.6663 4.33332V15.6667C16.6663 16.6001 16.6663 17.0668 16.4847 17.4233C16.3249 17.7369 16.0699 17.9919 15.7563 18.1517C15.3998 18.3333 14.9331 18.3333 13.9997 18.3333H7.33301C5.93288 18.3333 5.23281 18.3333 4.69803 18.0608C4.22763 17.8212 3.84517 17.4387 3.60549 16.9683C3.33301 16.4335 3.33301 15.7335 3.33301 14.3333V5.66666Z"></path>
</svg>
