<svg xmlns="http://www.w3.org/2000/svg" fill="none" viewBox="0 0 20 20" height="20" width="20">
<g clip-path="url(#clip0_1595_4159)">
<path stroke-linejoin="round" stroke-linecap="round" stroke-width="1.5" stroke="#6A7282" d="M8.74962 18.2402L8.74971 16.4041C8.74971 16.3047 8.78529 16.2085 8.85001 16.133L10.9215 13.7162C11.0917 13.5176 11.039 13.213 10.8119 13.0833L8.43169 11.7231C8.36702 11.6862 8.31344 11.6326 8.27652 11.5679L6.72496 8.84887C6.64421 8.70736 6.48839 8.6259 6.3261 8.64035L1.71973 9.05063"></path>
<path stroke-linejoin="round" stroke-linecap="round" stroke-width="1.5" stroke="#6A7282" d="M12.5003 2.04816C11.7111 1.80028 10.8713 1.66666 10.0003 1.66666C5.39795 1.66666 1.66699 5.39762 1.66699 9.99999C1.66699 14.6024 5.39795 18.3333 10.0003 18.3333C14.6027 18.3333 18.3337 14.6024 18.3337 9.99999C18.3337 8.57055 17.9738 7.22517 17.3396 6.04953M14.167 4.79166H14.1712M17.5003 4.99999C17.5003 6.84094 15.8337 8.33332 14.167 9.99999C12.5003 8.33332 10.8337 6.84094 10.8337 4.99999C10.8337 3.15904 12.326 1.66666 14.167 1.66666C16.0079 1.66666 17.5003 3.15904 17.5003 4.99999ZM14.3753 4.79166C14.3753 4.90672 14.2821 4.99999 14.167 4.99999C14.0519 4.99999 13.9587 4.90672 13.9587 4.79166C13.9587 4.6766 14.0519 4.58332 14.167 4.58332C14.2821 4.58332 14.3753 4.6766 14.3753 4.79166Z"></path>
</g>
<defs>
<clipPath id="clip0_1595_4159">
<rect fill="white" height="20" width="20"></rect>
</clipPath>
</defs>
</svg>
