<svg xmlns="http://www.w3.org/2000/svg" fill="none" viewBox="0 0 20 20" height="20" width="20">
<path stroke-linejoin="round" stroke-linecap="square" stroke-width="1.5" stroke="#6A7282" d="M17.5 15L16.6666 15.9117C16.2246 16.3951 15.6251 16.6667 15.0001 16.6667C14.3751 16.6667 13.7757 16.3951 13.3337 15.9117C12.891 15.4293 12.2917 15.1584 11.6668 15.1584C11.042 15.1584 10.4426 15.4293 10 15.9117"></path>
<path stroke-linejoin="round" stroke-linecap="round" stroke-width="1.5" stroke="#6A7282" d="M2.5 15.2712C2.5 14.8636 2.5 14.6598 2.54605 14.4679C2.58688 14.2979 2.65422 14.1353 2.7456 13.9862C2.84867 13.818 2.9928 13.6739 3.28105 13.3856L13.75 2.91666C14.4404 2.22631 15.5597 2.22631 16.25 2.91666C16.9404 3.60702 16.9404 4.72631 16.25 5.41666L5.78107 15.8856C5.49282 16.1739 5.34869 16.318 5.1805 16.4211C5.03138 16.5124 4.8688 16.5798 4.69874 16.6206C4.50693 16.6667 4.3031 16.6667 3.89545 16.6667H2.5V15.2712Z"></path>
</svg>
