<svg xmlns="http://www.w3.org/2000/svg" fill="none" viewBox="0 0 20 20" height="20" width="20">
<path stroke-linejoin="round" stroke-linecap="square" stroke-width="1.5" stroke="#6A7282" d="M7.91699 18.3333H12.0837M8.33366 8.33334H10.0003M10.0003 8.33334H11.667M10.0003 8.33334L10.0003 13.3333"></path>
<path stroke-linejoin="round" stroke-linecap="round" stroke-width="1.5" stroke="#6A7282" d="M12.5003 12.772C14.4711 11.8357 15.8337 9.82699 15.8337 7.49999C15.8337 4.27833 13.222 1.66666 10.0003 1.66666C6.77866 1.66666 4.16699 4.27833 4.16699 7.49999C4.16699 9.82699 5.52954 11.8357 7.50033 12.772V13.3333C7.50033 14.1099 7.50033 14.4982 7.62719 14.8045C7.79635 15.2128 8.12081 15.5373 8.52919 15.7065C8.83547 15.8333 9.22376 15.8333 10.0003 15.8333C10.7769 15.8333 11.1652 15.8333 11.4715 15.7065C11.8798 15.5373 12.2043 15.2128 12.3735 14.8045C12.5003 14.4982 12.5003 14.1099 12.5003 13.3333V12.772Z"></path>
</svg>
