<svg xmlns="http://www.w3.org/2000/svg" fill="none" viewBox="0 0 20 20" height="20" width="20">
<g clip-path="url(#clip0_1595_2951)">
<path stroke-linejoin="round" stroke-linecap="round" stroke-width="1.5" stroke="#6A7282" d="M8.33366 12.5L5.77095 15.0947C5.41348 15.4567 5.23475 15.6376 5.08112 15.6504C4.94784 15.6615 4.81734 15.6079 4.73029 15.5064C4.62996 15.3893 4.62996 15.135 4.62996 14.6263V13.3263C4.62996 12.87 4.25622 12.5397 3.80466 12.4736V12.4736C2.71178 12.3135 1.85347 11.4552 1.69339 10.3623C1.66699 10.1821 1.66699 9.96709 1.66699 9.53703V5.66666C1.66699 4.26653 1.66699 3.56646 1.93948 3.03168C2.17916 2.56128 2.56161 2.17882 3.03202 1.93914C3.5668 1.66666 4.26686 1.66666 5.66699 1.66666H11.8337C13.2338 1.66666 13.9339 1.66666 14.4686 1.93914C14.939 2.17882 15.3215 2.56128 15.5612 3.03168C15.8337 3.56646 15.8337 4.26653 15.8337 5.66666V9.16666"></path>
<path stroke-linejoin="round" stroke-linecap="round" stroke-width="1.5" stroke="#6A7282" d="M18.333 11.8333C18.333 10.8999 18.333 10.4332 18.1514 10.0767C17.9916 9.76307 17.7366 9.5081 17.423 9.34831C17.0665 9.16666 16.5998 9.16666 15.6663 9.16666H10.9997C10.0663 9.16666 9.59954 9.16666 9.24302 9.34831C8.92942 9.5081 8.67445 9.76307 8.51466 10.0767C8.33301 10.4332 8.33301 10.8999 8.33301 11.8333V13.9286C8.33301 14.862 8.33301 15.3287 8.51466 15.6852C8.67445 15.9988 8.92942 16.2538 9.24302 16.4136C9.59954 16.5952 10.0663 16.5952 10.9997 16.5952H12.4971C12.8076 16.5952 12.9629 16.5952 13.1127 16.6228C13.2456 16.6473 13.375 16.6879 13.4982 16.7437C13.6369 16.8065 13.7644 16.8951 14.0193 17.0724L15.833 18.3333V16.5952C16.6096 16.5952 16.9979 16.5952 17.3041 16.4684C17.7125 16.2992 18.037 15.9747 18.2061 15.5664C18.333 15.2601 18.333 14.8718 18.333 14.0952V11.8333Z"></path>
</g>
<defs>
<clipPath id="clip0_1595_2951">
<rect fill="white" height="20" width="20"></rect>
</clipPath>
</defs>
</svg>
