<svg xmlns="http://www.w3.org/2000/svg" fill="none" viewBox="0 0 20 20" height="20" width="20">
<path stroke-linejoin="round" stroke-linecap="round" stroke-width="1.5" stroke="#6A7282" d="M5.00033 4.99999L8.75032 8.74999M5.00033 4.99999H2.50033L1.66699 2.49999L2.50033 1.66666L5.00033 2.49999V4.99999ZM10.0004 12.4999L14.5837 17.0832C15.274 17.7736 16.3933 17.7736 17.0836 17.0832C17.774 16.3929 17.774 15.2736 17.0836 14.5832L13.3131 10.8127C13.0462 10.7875 12.7859 10.7393 12.5343 10.6703C12.2101 10.5813 11.8544 10.6459 11.6167 10.8836L10.0004 12.4999Z"></path>
<path stroke-linejoin="round" stroke-linecap="round" stroke-width="1.5" stroke="#6A7282" d="M16.0487 2.28417L13.859 4.47385C13.529 4.80386 13.364 4.96887 13.3022 5.15914C13.2478 5.32651 13.2478 5.5068 13.3022 5.67417C13.364 5.86444 13.529 6.02945 13.859 6.35946L14.0567 6.55718C14.3867 6.88719 14.5517 7.0522 14.742 7.11403C14.9094 7.16841 15.0897 7.16841 15.2571 7.11403C15.4473 7.0522 15.6123 6.88719 15.9423 6.55718L17.9906 4.50892C18.2112 5.04573 18.3329 5.63365 18.3329 6.24999C18.3329 8.78129 16.2808 10.8333 13.7495 10.8333C13.4444 10.8333 13.1462 10.8035 12.8577 10.7466C12.4525 10.6667 12.25 10.6268 12.1272 10.639C11.9966 10.652 11.9323 10.6716 11.8166 10.7335C11.7078 10.7917 11.5987 10.9008 11.3804 11.1191L5.4162 17.0833C4.72585 17.7737 3.60656 17.7737 2.9162 17.0833C2.22585 16.393 2.22585 15.2737 2.91621 14.5833L8.88039 8.61913C9.09868 8.40084 9.20782 8.2917 9.26605 8.1829C9.32795 8.06722 9.34753 8.00288 9.36054 7.87233C9.37277 7.74953 9.33282 7.54698 9.25292 7.14186C9.19603 6.85337 9.1662 6.55516 9.1662 6.24999C9.1662 3.71868 11.2182 1.66666 13.7495 1.66666C14.5875 1.66666 15.3729 1.89151 16.0487 2.28417Z"></path>
</svg>
