<svg xmlns="http://www.w3.org/2000/svg" fill="none" viewBox="0 0 20 20" height="20" width="20">
<path stroke-linejoin="round" stroke-linecap="square" stroke-width="1.5" stroke="#6A7282" d="M16.6663 8.33332V5.66666C16.6663 4.26653 16.6663 3.56646 16.3939 3.03168C16.1542 2.56128 15.7717 2.17882 15.3013 1.93914C14.7665 1.66666 14.0665 1.66666 12.6663 1.66666H7.33301C5.93288 1.66666 5.23281 1.66666 4.69803 1.93914C4.22763 2.17882 3.84517 2.56128 3.60549 3.03168C3.33301 3.56646 3.33301 4.26653 3.33301 5.66666V14.3333C3.33301 15.7335 3.33301 16.4335 3.60549 16.9683C3.84517 17.4387 4.22763 17.8212 4.69803 18.0608C5.23281 18.3333 5.93288 18.3333 7.33301 18.3333H9.99967"></path>
<path stroke-linejoin="round" stroke-linecap="square" stroke-width="1.5" stroke="#6A7282" d="M10.417 9.16668H6.66699M7.50033 12.5H6.66699M13.3337 5.83334H6.66699M14.1647 12.3588C13.4983 11.6013 12.3869 11.3976 11.5519 12.0912C10.7169 12.7849 10.5993 13.9446 11.2551 14.765C11.9108 15.5853 14.1647 17.5 14.1647 17.5C14.1647 17.5 16.4186 15.5853 17.0744 14.765C17.7301 13.9446 17.6269 12.7776 16.7775 12.0912C15.9282 11.4049 14.8312 11.6013 14.1647 12.3588Z"></path>
</svg>
