<svg xmlns="http://www.w3.org/2000/svg" fill="none" viewBox="0 0 20 20" height="20" width="20">
<path stroke-linejoin="round" stroke-linecap="square" stroke-width="1.5" stroke="#6A7282" d="M13.333 2.8898C14.5678 3.50343 15.4163 4.77762 15.4163 6.25C15.4163 7.72239 14.5678 8.99658 13.333 9.6102M14.9997 13.972C16.2592 14.5419 17.3934 15.4708 18.333 16.6667"></path>
<path stroke-linejoin="round" stroke-linecap="square" stroke-width="1.5" stroke="#6A7282" d="M1.66699 16.6667C3.28907 14.6021 5.49131 13.3333 7.91699 13.3333C10.3427 13.3333 12.5449 14.6021 14.167 16.6667M11.667 6.25C11.667 8.32107 9.98806 10 7.91699 10C5.84592 10 4.16699 8.32107 4.16699 6.25C4.16699 4.17893 5.84592 2.5 7.91699 2.5C9.98806 2.5 11.667 4.17893 11.667 6.25Z"></path>
</svg>
