<svg xmlns="http://www.w3.org/2000/svg" fill="none" viewBox="0 0 20 20" height="20" width="20">
<g clip-path="url(#clip0_1595_3818)">
<path stroke-linejoin="round" stroke-linecap="square" stroke-width="1.5" stroke="#6A7282" d="M4.16699 11.9053C2.62419 12.5859 1.66699 13.5343 1.66699 14.5833C1.66699 16.6544 5.39795 18.3333 10.0003 18.3333C14.6027 18.3333 18.3337 16.6544 18.3337 14.5833C18.3337 13.5343 17.3765 12.5859 15.8337 11.9053"></path>
<path stroke-linejoin="round" stroke-linecap="square" stroke-width="1.5" stroke="#6A7282" d="M10 14.1667C11.25 11.6667 15 10.0531 15 6.66666C15 3.90523 12.7614 1.66666 10 1.66666C7.23858 1.66666 5 3.90523 5 6.66666C5 10.0531 8.75 11.6667 10 14.1667Z"></path>
<path stroke-linejoin="round" stroke-linecap="square" stroke-width="1.5" stroke="#6A7282" d="M10 7.49999C10.4602 7.49999 10.8333 7.12689 10.8333 6.66666C10.8333 6.20642 10.4602 5.83332 10 5.83332C9.53976 5.83332 9.16667 6.20642 9.16667 6.66666C9.16667 7.12689 9.53976 7.49999 10 7.49999Z"></path>
</g>
<defs>
<clipPath id="clip0_1595_3818">
<rect fill="white" height="20" width="20"></rect>
</clipPath>
</defs>
</svg>
