<svg xmlns="http://www.w3.org/2000/svg" fill="none" viewBox="0 0 20 20" height="20" width="20">
<g clip-path="url(#clip0_1595_685)">
<path fill="#6A7282" d="M8.03 14.697C8.3229 14.4041 8.3229 13.9292 8.03 13.6363C7.73711 13.3434 7.26224 13.3434 6.96934 13.6363L8.03 14.697ZM2.80268 17.803L2.27235 18.3333L3.33301 19.394L3.86334 18.8637L2.80268 17.803ZM13.03 13.6363C12.7371 13.3434 12.2622 13.3434 11.9693 13.6363C11.6765 13.9292 11.6765 14.4041 11.9693 14.697L13.03 13.6363ZM16.136 18.8637L16.6663 19.394L17.727 18.3333L17.1967 17.803L16.136 18.8637ZM10.7497 1.66667V0.916672H9.24967V1.66667H10.7497ZM9.24967 3.33334V4.08334H10.7497V3.33334H9.24967ZM9.24967 18.3333V19.0833H10.7497V18.3333H9.24967ZM10.7497 14.1667C10.7497 13.7525 10.4139 13.4167 9.99967 13.4167C9.58546 13.4167 9.24967 13.7525 9.24967 14.1667H10.7497ZM7.49967 14.1667L6.96934 13.6363L2.80268 17.803L3.33301 18.3333L3.86334 18.8637L8.03 14.697L7.49967 14.1667ZM12.4997 14.1667L11.9693 14.697L16.136 18.8637L16.6663 18.3333L17.1967 17.803L13.03 13.6363L12.4997 14.1667ZM9.99967 1.66667H9.24967V3.33334H9.99967H10.7497V1.66667H9.99967ZM9.99967 18.3333H10.7497V14.1667H9.99967H9.24967V18.3333H9.99967Z"></path>
<path stroke-linejoin="round" stroke-linecap="square" stroke-width="1.5" stroke="#6A7282" d="M1.66699 5.99999C1.66699 5.06657 1.66699 4.59986 1.84865 4.24334C2.00844 3.92974 2.2634 3.67477 2.57701 3.51498C2.93353 3.33333 3.40024 3.33333 4.33366 3.33333H15.667C16.6004 3.33333 17.0671 3.33333 17.4236 3.51498C17.7372 3.67477 17.9922 3.92974 18.152 4.24334C18.3337 4.59986 18.3337 5.06657 18.3337 6V11.5C18.3337 12.4334 18.3337 12.9001 18.152 13.2566C17.9922 13.5702 17.7372 13.8252 17.4236 13.985C17.0671 14.1667 16.6004 14.1667 15.667 14.1667H4.33366C3.40024 14.1667 2.93353 14.1667 2.57701 13.985C2.2634 13.8252 2.00844 13.5702 1.84865 13.2566C1.66699 12.9001 1.66699 12.4334 1.66699 11.5V5.99999Z"></path>
</g>
<defs>
<clipPath id="clip0_1595_685">
<rect fill="white" height="20" width="20"></rect>
</clipPath>
</defs>
</svg>
