<svg xmlns="http://www.w3.org/2000/svg" fill="none" viewBox="0 0 20 20" height="20" width="20">
<path fill="#6A7282" d="M9.90404 3.9741L9.23322 4.30951L9.23322 4.30951L9.90404 3.9741ZM10.1628 6.16874C10.3481 6.53923 10.7986 6.6894 11.1691 6.50415C11.5396 6.31891 11.6897 5.86841 11.5045 5.49792L10.1628 6.16874ZM0.916992 5.83333V6.58333H2.41699V5.83333H0.916992ZM8.68039 2.59109L8.92494 1.88208L8.92494 1.88208L8.68039 2.59109ZM9.30313 2.97597L9.82792 2.44016L9.82792 2.44016L9.30313 2.97597ZM2.57701 2.68166L2.23651 2.0134L2.23651 2.0134L2.57701 2.68166ZM1.84865 3.41002L1.18039 3.06952L1.18039 3.06952L1.84865 3.41002ZM4.33366 2.5V3.25H7.5189V2.5V1.75H4.33366V2.5ZM9.90404 3.9741L9.23322 4.30951L10.1628 6.16874L10.8337 5.83333L11.5045 5.49792L10.5749 3.63869L9.90404 3.9741ZM1.66699 5.83333H2.41699V5.16667H1.66699H0.916992V5.83333H1.66699ZM7.5189 2.5V3.25C8.17154 3.25 8.31895 3.25979 8.43583 3.3001L8.68039 2.59109L8.92494 1.88208C8.51364 1.74021 8.06279 1.75 7.5189 1.75V2.5ZM9.90404 3.9741L10.5749 3.63869C10.3316 3.15222 10.1388 2.74459 9.82792 2.44016L9.30313 2.97597L8.77834 3.51178C8.86667 3.59829 8.94136 3.72578 9.23322 4.30951L9.90404 3.9741ZM8.68039 2.59109L8.43583 3.3001C8.56428 3.3444 8.68127 3.41671 8.77834 3.51178L9.30313 2.97597L9.82792 2.44016C9.57201 2.18951 9.26358 1.99889 8.92494 1.88208L8.68039 2.59109ZM4.33366 2.5V1.75C3.87932 1.75 3.49347 1.74942 3.17792 1.7752C2.85362 1.80169 2.53813 1.85972 2.23651 2.0134L2.57701 2.68166L2.9175 3.34991C2.97241 3.32193 3.06853 3.28913 3.30007 3.27022C3.54036 3.25058 3.85457 3.25 4.33366 3.25V2.5ZM1.66699 5.16667H2.41699C2.41699 4.68758 2.41758 4.37337 2.43721 4.13308C2.45613 3.90154 2.48893 3.80542 2.5169 3.75051L1.84865 3.41002L1.18039 3.06952C1.02671 3.37113 0.968686 3.68663 0.94219 4.01093C0.916409 4.32647 0.916992 4.71233 0.916992 5.16667H1.66699ZM2.57701 2.68166L2.23651 2.0134C1.78179 2.24509 1.41209 2.6148 1.18039 3.06952L1.84865 3.41002L2.5169 3.75051C2.60479 3.57803 2.74502 3.43779 2.9175 3.34991L2.57701 2.68166Z"></path>
<path stroke-linejoin="round" stroke-linecap="square" stroke-width="1.5" stroke="#6A7282" d="M10.0003 14.1667V9.16668M7.50033 11.6667H12.5003M1.66699 5.83334H14.3337C15.7338 5.83334 16.4339 5.83334 16.9686 6.10583C17.439 6.34551 17.8215 6.72796 18.0612 7.19837C18.3337 7.73315 18.3337 8.43321 18.3337 9.83334V13.5C18.3337 14.9001 18.3337 15.6002 18.0612 16.135C17.8215 16.6054 17.439 16.9878 16.9686 17.2275C16.4339 17.5 15.7338 17.5 14.3337 17.5H5.66699C4.26686 17.5 3.5668 17.5 3.03202 17.2275C2.56161 16.9878 2.17916 16.6054 1.93948 16.135C1.66699 15.6002 1.66699 14.9001 1.66699 13.5V5.83334Z"></path>
</svg>
